<?xml version="1.0" encoding="utf-8"?>
<svg xmlns="http://www.w3.org/2000/svg" viewBox="0 0 64 64" fill="#440099"><path d="M 26.175781 0.710938 C 25.1875 0.714844 24.222656 1.007813 23.390625 1.570313 C 22.269531 2.332031 21.519531 3.46875 21.269531 4.789063 L 19.828125 12.488281 C 15.769531 13.582031 13 15.261719 13 17.5 C 13 19.523438 15.261719 21.089844 18.699219 22.175781 C 17.046875 22.625 16.363281 25.027344 17.097656 27.78125 C 17.640625 29.769531 18.761719 31.269531 19.988281 31.730469 C 20.398438 33 20.941406 34.257813 21.597656 35.46875 L 9.25 41.378906 C 5.460938 43.199219 3 47.089844 3 51.300781 L 3 59 C 3 60.648438 4.351563 62 6 62 L 60 62 C 61.648438 62 63 60.648438 63 59 L 63 51.300781 C 63 47.089844 60.539063 43.199219 56.75 41.378906 L 44.402344 35.46875 C 45.058594 34.261719 45.597656 33 46.019531 31.730469 C 47.238281 31.269531 48.359375 29.769531 48.902344 27.78125 C 49.636719 25.027344 48.953125 22.625 47.300781 22.175781 C 50.738281 21.085938 53 19.523438 53 17.5 C 53 15.261719 50.230469 13.582031 46.171875 12.488281 L 44.730469 4.789063 C 44.480469 3.46875 43.730469 2.332031 42.609375 1.570313 C 41.5 0.820313 40.148438 0.550781 38.828125 0.8125 L 36.730469 1.230469 C 34.25 1.730469 31.75 1.730469 29.269531 1.230469 L 27.171875 0.8125 C 26.839844 0.746094 26.507813 0.710938 26.175781 0.710938 Z M 26.175781 2.714844 C 26.375 2.714844 26.570313 2.730469 26.769531 2.769531 L 28.878906 3.199219 C 31.609375 3.738281 34.390625 3.738281 37.121094 3.199219 L 39.230469 2.769531 C 40.019531 2.621094 40.820313 2.78125 41.488281 3.230469 C 42.160156 3.679688 42.609375 4.371094 42.761719 5.160156 L 44.039063 12 L 44.4375 14.140625 L 44.847656 16.300781 C 37.097656 18.519531 28.960938 18.53125 21.152344 16.300781 L 21.5 14.441406 C 25.261719 15.4375 29.105469 15.964844 32.980469 15.964844 C 34.09375 15.964844 35.210938 15.921875 36.328125 15.839844 C 36.882813 15.800781 37.292969 15.320313 37.253906 14.769531 C 37.214844 14.21875 36.726563 13.804688 36.183594 13.84375 C 31.351563 14.203125 26.539063 13.742188 21.867188 12.484375 L 21.960938 12 L 23.238281 5.160156 C 23.390625 4.371094 23.839844 3.679688 24.511719 3.230469 C 25.011719 2.894531 25.589844 2.71875 26.175781 2.714844 Z M 41.535156 13.109375 C 40.828125 13.25 40.117188 13.378906 39.402344 13.484375 C 38.855469 13.566406 38.480469 14.074219 38.5625 14.625 C 38.636719 15.117188 39.0625 15.472656 39.546875 15.472656 C 39.597656 15.472656 39.648438 15.472656 39.699219 15.464844 C 40.445313 15.351563 41.191406 15.21875 41.933594 15.066406 C 42.472656 14.960938 42.824219 14.429688 42.714844 13.890625 C 42.605469 13.351563 42.074219 13 41.535156 13.109375 Z M 19.421875 14.699219 L 19.019531 16.820313 C 18.917969 17.320313 19.28125 17.820313 19.769531 17.96875 C 24.089844 19.3125 28.550781 19.96875 33 19.96875 C 37.449219 19.96875 41.910156 19.3125 46.238281 17.96875 L 46.300781 17.960938 C 46.78125 17.8125 47.082031 17.308594 46.980469 16.820313 L 46.578125 14.699219 C 49.421875 15.570313 51 16.628906 51 17.5 C 51 19.328125 43.988281 22 33 22 C 22.011719 22 15 19.328125 15 17.5 C 15 16.628906 16.578125 15.570313 19.421875 14.699219 Z M 21.078125 22.8125 C 24.554688 23.597656 28.789063 24 33 24 C 37.210938 24 41.441406 23.597656 44.921875 22.8125 C 44.925781 22.84375 44.925781 22.875 44.929688 22.90625 L 42.210938 28.34375 C 41.699219 29.363281 40.671875 30 39.527344 30 L 37.234375 30 C 36.851563 30 36.511719 29.789063 36.339844 29.449219 L 35.683594 28.132813 C 35.171875 27.109375 34.140625 26.472656 33 26.472656 C 31.855469 26.472656 30.828125 27.109375 30.3125 28.132813 L 29.65625 29.449219 C 29.488281 29.789063 29.144531 30 28.765625 30 L 26.472656 30 C 25.328125 30 24.300781 29.363281 23.789063 28.34375 L 21.070313 22.902344 C 21.074219 22.871094 21.074219 22.839844 21.078125 22.8125 Z M 19.210938 24.097656 C 19.222656 24.097656 19.300781 24.109375 19.488281 24.21875 C 19.488281 24.21875 19.492188 24.21875 19.492188 24.21875 L 22 29.234375 C 22.851563 30.941406 24.566406 32 26.472656 32 L 28.765625 32 C 29.90625 32 30.933594 31.363281 31.449219 30.34375 L 32.105469 29.027344 C 32.277344 28.679688 32.613281 28.472656 33 28.472656 C 33.386719 28.472656 33.722656 28.679688 33.894531 29.027344 L 34.550781 30.34375 C 35.0625 31.363281 36.089844 32 37.234375 32 L 39.527344 32 C 41.433594 32 43.148438 30.941406 44 29.234375 L 46.507813 24.21875 L 46.511719 24.21875 C 46.691406 24.109375 46.78125 24.097656 46.78125 24.097656 C 47.019531 24.167969 47.46875 25.390625 46.96875 27.261719 C 46.71875 28.179688 46.359375 28.839844 46.03125 29.261719 C 45.6875 29.679688 45.378906 29.878906 45.238281 29.878906 L 45.230469 29.878906 C 44.789063 29.878906 44.398438 30.167969 44.28125 30.597656 C 43.878906 31.960938 43.308594 33.328125 42.621094 34.621094 C 42.300781 35.210938 41.949219 35.789063 41.570313 36.339844 C 39.398438 39.578125 36.359375 42 33 42 C 29.640625 42 26.601563 39.578125 24.429688 36.339844 C 24.050781 35.789063 23.710938 35.210938 23.390625 34.621094 C 22.699219 33.328125 22.128906 31.960938 21.730469 30.597656 C 21.601563 30.167969 21.210938 29.878906 20.769531 29.878906 C 20.46875 29.878906 19.53125 29.101563 19.03125 27.261719 C 18.859375 26.640625 18.800781 26.101563 18.800781 25.640625 C 18.800781 24.710938 19.0625 24.148438 19.210938 24.097656 Z M 21.242188 37.863281 L 28.941406 60 L 26.5 60 L 18.25 49 L 20.800781 45.597656 C 20.960938 45.386719 21.027344 45.121094 20.988281 44.859375 L 20.070313 38.421875 Z M 44.757813 37.863281 L 45.929688 38.421875 L 45.011719 44.859375 C 44.972656 45.121094 45.039063 45.386719 45.199219 45.601563 L 47.730469 48.972656 L 39.226563 59.367188 C 39.074219 59.550781 39.015625 59.777344 39.015625 60 L 37.058594 60 Z M 23.597656 38.558594 C 26.066406 41.734375 29.351563 44 33 44 C 36.648438 44 39.933594 41.734375 42.402344 38.558594 L 35.058594 59.671875 C 35.019531 59.78125 35.011719 59.890625 35.011719 60 L 30.988281 60 C 30.988281 59.890625 30.984375 59.78125 30.945313 59.671875 Z M 18.179688 39.328125 L 18.953125 44.730469 L 16.199219 48.402344 C 15.933594 48.753906 15.933594 49.246094 16.199219 49.597656 L 24 60 L 6 60 C 5.449219 60 5 59.550781 5 59 L 5 51.300781 C 5 47.859375 7.007813 44.667969 10.121094 43.179688 Z M 47.820313 39.328125 L 55.878906 43.183594 C 58.988281 44.671875 61 47.859375 61 51.300781 L 61 59 C 61 59.550781 60.550781 60 60 60 L 41.292969 60 L 49.773438 49.632813 C 50.066406 49.277344 50.078125 48.769531 49.800781 48.402344 L 47.046875 44.734375 Z M 8 54 C 7.449219 54 7 54.449219 7 55 L 7 57 C 7 57.550781 7.449219 58 8 58 C 8.550781 58 9 57.550781 9 57 L 9 55 C 9 54.449219 8.550781 54 8 54 Z M 13 54 C 12.449219 54 12 54.449219 12 55 L 12 57 C 12 57.550781 12.449219 58 13 58 C 13.550781 58 14 57.550781 14 57 L 14 55 C 14 54.449219 13.550781 54 13 54 Z M 18 54 C 17.449219 54 17 54.449219 17 55 L 17 57 C 17 57.550781 17.449219 58 18 58 C 18.550781 58 19 57.550781 19 57 L 19 55 C 19 54.449219 18.550781 54 18 54 Z M 48 54 C 47.449219 54 47 54.449219 47 55 L 47 57 C 47 57.550781 47.449219 58 48 58 C 48.550781 58 49 57.550781 49 57 L 49 55 C 49 54.449219 48.550781 54 48 54 Z M 53 54 C 52.449219 54 52 54.449219 52 55 L 52 57 C 52 57.550781 52.449219 58 53 58 C 53.550781 58 54 57.550781 54 57 L 54 55 C 54 54.449219 53.550781 54 53 54 Z M 58 54 C 57.449219 54 57 54.449219 57 55 L 57 57 C 57 57.550781 57.449219 58 58 58 C 58.550781 58 59 57.550781 59 57 L 59 55 C 59 54.449219 58.550781 54 58 54 Z" fill="#440099"/></svg>
