<?xml version="1.0" encoding="utf-8"?>
<svg xmlns="http://www.w3.org/2000/svg" viewBox="0 0 64 64" fill="#440099"><path d="M 13 8 C 11.343 8 10 9.343 10 11 L 10 14 L 7 14 C 5.343 14 4 15.343 4 17 L 4 49 C 4 50.657 5.343 52 7 52 L 14.140625 52 C 14.139625 54.315 13.442625 56.576234 12.140625 58.490234 C 11.858625 58.965234 12.015234 59.578375 12.490234 59.859375 C 12.645234 59.951375 12.821 60 13 60 L 13.220703 60 C 20.940703 58.28 23.820156 53.76 24.660156 52 L 30 52 L 32 52 L 34 52 L 53 52 C 54.657 52 56 50.657 56 49 L 56 46 L 57 46 C 58.657 46 60 44.657 60 43 L 60 11 C 60 9.343 58.657 8 57 8 L 13 8 z M 13 10 L 57 10 C 57.552 10 58 10.448 58 11 L 58 43 C 58 43.552 57.552 44 57 44 L 56 44 L 56 34 L 56 32 L 56 28 L 56 17 C 56 15.343 54.657 14 53 14 L 12 14 L 12 11 C 12 10.448 12.448 10 13 10 z M 7 16 L 53 16 C 53.552 16 54 16.448 54 17 L 54 49 C 54 49.552 53.552 50 53 50 L 24 50 C 23.57 49.999 23.187781 50.272688 23.050781 50.679688 C 23.050781 50.679688 21.47 55.199922 15 57.419922 C 16.83 53.319922 16 50.809687 16 50.679688 C 15.857 50.254688 15.448 49.977 15 50 L 7 50 C 6.448 50 6 49.552 6 49 L 6 17 C 6 16.448 6.448 16 7 16 z M 15 28 C 14.448 28 14 28.448 14 29 C 14 29.552 14.448 30 15 30 L 33 30 C 33.552 30 34 29.552 34 29 C 34 28.448 33.552 28 33 28 L 15 28 z M 37 28 C 36.448 28 36 28.448 36 29 C 36 29.552 36.448 30 37 30 L 41 30 C 41.552 30 42 29.552 42 29 C 42 28.448 41.552 28 41 28 L 37 28 z M 15 34 C 14.448 34 14 34.448 14 35 C 14 35.552 14.448 36 15 36 L 37 36 C 37.552 36 38 35.552 38 35 C 38 34.448 37.552 34 37 34 L 15 34 z M 10 44 C 9.448 44 9 44.448 9 45 L 9 47 C 9 47.552 9.448 48 10 48 C 10.552 48 11 47.552 11 47 L 11 45 C 11 44.448 10.552 44 10 44 z M 15 44 C 14.448 44 14 44.448 14 45 L 14 47 C 14 47.552 14.448 48 15 48 C 15.552 48 16 47.552 16 47 L 16 45 C 16 44.448 15.552 44 15 44 z M 20 44 C 19.448 44 19 44.448 19 45 L 19 47 C 19 47.552 19.448 48 20 48 C 20.552 48 21 47.552 21 47 L 21 45 C 21 44.448 20.552 44 20 44 z M 25 44 C 24.448 44 24 44.448 24 45 L 24 47 C 24 47.552 24.448 48 25 48 C 25.552 48 26 47.552 26 47 L 26 45 C 26 44.448 25.552 44 25 44 z M 30 44 C 29.448 44 29 44.448 29 45 L 29 47 C 29 47.552 29.448 48 30 48 C 30.552 48 31 47.552 31 47 L 31 45 C 31 44.448 30.552 44 30 44 z M 35 44 C 34.448 44 34 44.448 34 45 L 34 47 C 34 47.552 34.448 48 35 48 C 35.552 48 36 47.552 36 47 L 36 45 C 36 44.448 35.552 44 35 44 z M 40 44 C 39.448 44 39 44.448 39 45 L 39 47 C 39 47.552 39.448 48 40 48 C 40.552 48 41 47.552 41 47 L 41 45 C 41 44.448 40.552 44 40 44 z M 45 44 C 44.448 44 44 44.448 44 45 L 44 47 C 44 47.552 44.448 48 45 48 C 45.552 48 46 47.552 46 47 L 46 45 C 46 44.448 45.552 44 45 44 z M 50 44 C 49.448 44 49 44.448 49 45 L 49 47 C 49 47.552 49.448 48 50 48 C 50.552 48 51 47.552 51 47 L 51 45 C 51 44.448 50.552 44 50 44 z" fill="#440099"/></svg>
