<?xml version="1.0" encoding="utf-8"?>
<svg xmlns="http://www.w3.org/2000/svg" viewBox="0 0 64 64" fill="#440099"><path d="M 21 7 C 11.622998 7 4 14.623005 4 24 C 4 31.366521 8.713639 37.632263 15.277344 39.988281 C 15.101886 40.967351 15 41.971746 15 43 C 15 52.377379 22.622621 60 32 60 C 41.377379 60 49 52.377379 49 43 C 49 41.971096 48.892582 40.969137 48.716797 39.990234 C 55.28354 37.635842 60 31.368698 60 24 C 60 14.623005 52.377002 7 43 7 C 38.804683 7 34.967502 8.5343494 32 11.060547 C 29.032498 8.5343494 25.195317 7 21 7 z M 21 9 C 24.640023 9 27.973153 10.292015 30.568359 12.441406 C 27.743537 15.477721 26 19.533506 26 24 C 26 25.027434 26.105935 26.028261 26.28125 27.005859 C 26.062945 27.083939 25.839063 27.149686 25.625 27.236328 A 1.0001 1.0001 0 1 0 26.375 29.089844 C 26.494693 29.041398 26.620997 29.006359 26.742188 28.960938 C 27.504211 31.454782 28.835038 33.6955 30.568359 35.558594 C 27.973153 37.707985 24.640023 39 21 39 C 19.848128 39 18.731097 38.858072 17.654297 38.613281 C 18.098929 37.15683 18.756206 35.793892 19.595703 34.5625 A 1.0001 1.0001 0 1 0 17.943359 33.4375 C 16.991177 34.834181 16.246572 36.383373 15.742188 38.037109 C 10.050385 35.908896 6 30.442504 6 24 C 6 15.703883 12.703878 9 21 9 z M 43 9 C 51.296122 9 58 15.703883 58 24 C 58 30.442504 53.949615 35.908896 48.257812 38.037109 C 46.688461 32.902926 42.745358 28.812316 37.716797 27.009766 C 37.892589 26.030888 38 25.028862 38 24 C 38 19.533506 36.256463 15.477721 33.431641 12.441406 C 36.026847 10.292015 39.359977 9 43 9 z M 40.617188 11.230469 A 1.0001 1.0001 0 0 0 39.652344 12.439453 L 40.044922 14.400391 A 1.0001 1.0001 0 1 0 42.005859 14.009766 L 41.613281 12.048828 A 1.0001 1.0001 0 0 0 40.617188 11.230469 z M 46.246094 11.458984 A 1.0001 1.0001 0 0 0 45.318359 12.199219 L 44.771484 14.123047 A 1.0001 1.0001 0 1 0 46.695312 14.669922 L 47.242188 12.744141 A 1.0001 1.0001 0 0 0 46.246094 11.458984 z M 32 13.816406 C 34.476189 16.490524 36 20.060339 36 24 C 36 24.832704 35.915066 25.644001 35.785156 26.439453 C 34.565752 26.160893 33.302891 26 32 26 C 30.697948 26 29.434682 26.161467 28.214844 26.439453 C 28.084934 25.644001 28 24.832704 28 24 C 28 20.060339 29.523811 16.490524 32 13.816406 z M 51.25 14.244141 A 1.0001 1.0001 0 0 0 51.148438 14.246094 A 1.0001 1.0001 0 0 0 50.470703 14.570312 L 49.103516 16.029297 A 1.0003976 1.0003976 0 1 0 50.5625 17.398438 L 51.929688 15.939453 A 1.0001 1.0001 0 0 0 51.25 14.244141 z M 54.324219 18.978516 A 1.0001 1.0001 0 0 0 53.960938 19.041016 L 52.076172 19.710938 A 1.0001418 1.0001418 0 1 0 52.746094 21.595703 L 54.630859 20.925781 A 1.0001 1.0001 0 0 0 54.324219 18.978516 z M 52.832031 24.335938 A 1.0001 1.0001 0 0 0 52.761719 26.328125 L 54.742188 26.597656 A 1.0003304 1.0003304 0 1 0 55.011719 24.615234 L 53.03125 24.345703 A 1.0001 1.0001 0 0 0 52.832031 24.335938 z M 32 28 C 33.151941 28 34.268868 28.141943 35.345703 28.386719 C 34.678319 30.578135 33.516182 32.546219 32 34.183594 C 30.484233 32.546668 29.321765 30.57937 28.654297 28.388672 C 29.731004 28.143039 30.846567 28 32 28 z M 51.199219 28.720703 A 1.0001 1.0001 0 0 0 50.615234 30.548828 L 52.253906 31.693359 A 1.0001 1.0001 0 1 0 53.400391 30.054688 L 51.759766 28.908203 A 1.0001 1.0001 0 0 0 51.199219 28.720703 z M 37.257812 28.962891 C 41.600278 30.586458 44.985955 34.148061 46.345703 38.613281 C 45.268903 38.858072 44.151872 39 43 39 C 39.359977 39 36.026847 37.707985 33.431641 35.558594 C 35.164545 33.695948 36.495703 31.456019 37.257812 28.962891 z M 22.714844 28.990234 A 1.0001 1.0001 0 0 0 22.087891 29.1875 C 21.463148 29.636932 20.869714 30.1268 20.3125 30.654297 A 1.0002746 1.0002746 0 0 0 21.6875 32.107422 C 22.180286 31.640918 22.704602 31.207115 23.255859 30.810547 A 1.0001 1.0001 0 0 0 22.714844 28.990234 z M 32 36.939453 C 34.967502 39.465651 38.804683 41 43 41 C 44.302838 41 45.565779 40.839118 46.785156 40.560547 C 46.915058 41.356031 47 42.167246 47 43 C 47 51.296621 40.296621 58 32 58 C 23.703379 58 17 51.296621 17 43 C 17 42.167131 17.073041 41.351722 17.203125 40.556641 C 18.426193 40.836999 19.692868 41 21 41 C 25.195317 41 29.032498 39.465651 32 36.939453 z" fill="#440099"/></svg>
