<?xml version="1.0" encoding="utf-8"?>
<svg xmlns="http://www.w3.org/2000/svg" viewBox="0 0 64 64" fill="#9adbe8"><path d="M 7 8 C 5.343 8 4 9.343 4 11 L 4 53 C 4 54.657 5.343 56 7 56 L 57 56 C 58.657 56 60 54.657 60 53 L 60 11 C 60 9.343 58.657 8 57 8 L 7 8 z M 7 10 L 57 10 C 57.552 10 58 10.448 58 11 L 58 53 C 58 53.552 57.552 54 57 54 L 7 54 C 6.448 54 6 53.552 6 53 L 6 20 L 47 20 C 47.552 20 48 19.552 48 19 C 48 18.448 47.552 18 47 18 L 6 18 L 6 11 C 6 10.448 6.448 10 7 10 z M 10 12 C 9.448 12 9 12.448 9 13 L 9 15 C 9 15.552 9.448 16 10 16 C 10.552 16 11 15.552 11 15 L 11 13 C 11 12.448 10.552 12 10 12 z M 15 12 C 14.448 12 14 12.448 14 13 L 14 15 C 14 15.552 14.448 16 15 16 C 15.552 16 16 15.552 16 15 L 16 13 C 16 12.448 15.552 12 15 12 z M 20 12 C 19.448 12 19 12.448 19 13 L 19 15 C 19 15.552 19.448 16 20 16 C 20.552 16 21 15.552 21 15 L 21 13 C 21 12.448 20.552 12 20 12 z M 25 12 C 24.448 12 24 12.448 24 13 L 24 15 C 24 15.552 24.448 16 25 16 C 25.552 16 26 15.552 26 15 L 26 13 C 26 12.448 25.552 12 25 12 z M 30 12 C 29.448 12 29 12.448 29 13 L 29 15 C 29 15.552 29.448 16 30 16 C 30.552 16 31 15.552 31 15 L 31 13 C 31 12.448 30.552 12 30 12 z M 35 12 C 34.448 12 34 12.448 34 13 L 34 15 C 34 15.552 34.448 16 35 16 C 35.552 16 36 15.552 36 15 L 36 13 C 36 12.448 35.552 12 35 12 z M 40 12 C 39.448 12 39 12.448 39 13 L 39 15 C 39 15.552 39.448 16 40 16 C 40.552 16 41 15.552 41 15 L 41 13 C 41 12.448 40.552 12 40 12 z M 45 12 C 44.448 12 44 12.448 44 13 L 44 15 C 44 15.552 44.448 16 45 16 C 45.552 16 46 15.552 46 15 L 46 13 C 46 12.448 45.552 12 45 12 z M 50 12 C 49.448 12 49 12.448 49 13 L 49 15 C 49 15.552 49.448 16 50 16 C 50.552 16 51 15.552 51 15 L 51 13 C 51 12.448 50.552 12 50 12 z M 55 12 C 54.448 12 54 12.448 54 13 L 54 15 C 54 15.552 54.448 16 55 16 C 55.552 16 56 15.552 56 15 L 56 13 C 56 12.448 55.552 12 55 12 z M 51 18 C 50.448 18 50 18.448 50 19 C 50 19.552 50.448 20 51 20 L 55 20 C 55.552 20 56 19.552 56 19 C 56 18.448 55.552 18 55 18 L 51 18 z M 13 24 C 12.448 24 12 24.448 12 25 L 12 29 C 12 29.552 12.448 30 13 30 L 51 30 C 51.552 30 52 29.552 52 29 L 52 25 C 52 24.448 51.552 24 51 24 L 13 24 z M 14 26 L 50 26 L 50 28 L 14 28 L 14 26 z M 14 34 C 12.897 34 12 34.897 12 36 L 12 38 C 12 39.103 12.897 40 14 40 L 28 40 C 29.103 40 30 39.103 30 38 L 30 36 C 30 34.897 29.103 34 28 34 L 14 34 z M 35 34 C 34.448 34 34 34.448 34 35 L 34 47 C 34 47.552 34.448 48 35 48 L 51 48 C 51.552 48 52 47.552 52 47 L 52 35 C 52 34.448 51.552 34 51 34 L 35 34 z M 14 36 L 28 36 L 28.001953 38 L 14 38 L 14 36 z M 36 36 L 50 36 L 50 46 L 36 46 L 36 36 z M 14 42 C 12.897 42 12 42.897 12 44 L 12 46 C 12 47.103 12.897 48 14 48 L 28 48 C 29.103 48 30 47.103 30 46 L 30 44 C 30 42.897 29.103 42 28 42 L 14 42 z M 14 44 L 28 44 L 28.001953 46 L 14 46 L 14 44 z" fill="#9adbe8"/></svg>
