<?xml version="1.0" encoding="utf-8"?>
<svg xmlns="http://www.w3.org/2000/svg" viewBox="0 0 64 64" fill="#440099"><path d="M 31 2 C 15.011719 2 2 15.007813 2 31 C 2 46.992188 15.011719 60 31 60 C 46.988281 60 60 46.992188 60 31 C 60 15.007813 46.988281 2 31 2 Z M 31 4 C 45.886719 4 58 16.113281 58 31 C 58 45.886719 45.886719 58 31 58 C 16.113281 58 4 45.886719 4 31 C 4 16.113281 16.113281 4 31 4 Z M 31 8 C 18.316406 8 8 18.316406 8 31 C 8 43.683594 18.316406 54 31 54 C 43.683594 54 54 43.683594 54 31 C 54 23.894531 50.792969 17.300781 45.203125 12.90625 C 44.765625 12.5625 44.136719 12.640625 43.796875 13.074219 C 43.453125 13.507813 43.53125 14.136719 43.964844 14.480469 C 49.070313 18.492188 52 24.515625 52 31 C 52 42.578125 42.578125 52 31 52 C 19.421875 52 10 42.578125 10 31 C 10 19.421875 19.421875 10 31 10 C 32.027344 10 33.058594 10.074219 34.066406 10.222656 C 34.613281 10.304688 35.121094 9.925781 35.199219 9.375 C 35.277344 8.828125 34.902344 8.320313 34.355469 8.242188 C 33.253906 8.082031 32.125 8 31 8 Z M 38.53125 9.34375 C 38.144531 9.363281 37.785156 9.609375 37.644531 10 C 37.453125 10.515625 37.71875 11.089844 38.234375 11.28125 C 39.019531 11.570313 39.796875 11.910156 40.546875 12.292969 C 40.695313 12.367188 40.851563 12.402344 41.003906 12.402344 C 41.367188 12.402344 41.71875 12.203125 41.894531 11.855469 C 42.144531 11.363281 41.953125 10.761719 41.457031 10.511719 C 40.640625 10.089844 39.789063 9.71875 38.925781 9.402344 C 38.796875 9.355469 38.664063 9.335938 38.53125 9.34375 Z M 29 18 C 26.242188 18 24 20.242188 24 23 C 24 23.550781 24.445313 24 25 24 C 25.554688 24 26 23.550781 26 23 C 26 21.347656 27.347656 20 29 20 L 33 20 C 34.652344 20 36 21.347656 36 23 L 36 25.839844 C 36 27.296875 35.070313 28.589844 33.683594 29.050781 C 31.480469 29.785156 30 31.839844 30 34.160156 L 30 37 C 30 37.550781 30.445313 38 31 38 C 31.554688 38 32 37.550781 32 37 L 32 34.160156 C 32 32.703125 32.929688 31.410156 34.316406 30.949219 C 36.519531 30.214844 38 28.160156 38 25.839844 L 38 23 C 38 20.242188 35.757813 18 33 18 Z M 13 30 C 12.445313 30 12 30.449219 12 31 L 12 33 C 12 33.550781 12.445313 34 13 34 C 13.554688 34 14 33.550781 14 33 L 14 31 C 14 30.449219 13.554688 30 13 30 Z M 18 30 C 17.445313 30 17 30.449219 17 31 L 17 33 C 17 33.550781 17.445313 34 18 34 C 18.554688 34 19 33.550781 19 33 L 19 31 C 19 30.449219 18.554688 30 18 30 Z M 23 30 C 22.445313 30 22 30.449219 22 31 L 22 33 C 22 33.550781 22.445313 34 23 34 C 23.554688 34 24 33.550781 24 33 L 24 31 C 24 30.449219 23.554688 30 23 30 Z M 39 30 C 38.445313 30 38 30.449219 38 31 L 38 33 C 38 33.550781 38.445313 34 39 34 C 39.554688 34 40 33.550781 40 33 L 40 31 C 40 30.449219 39.554688 30 39 30 Z M 44 30 C 43.445313 30 43 30.449219 43 31 L 43 33 C 43 33.550781 43.445313 34 44 34 C 44.554688 34 45 33.550781 45 33 L 45 31 C 45 30.449219 44.554688 30 44 30 Z M 49 30 C 48.445313 30 48 30.449219 48 31 L 48 33 C 48 33.550781 48.445313 34 49 34 C 49.554688 34 50 33.550781 50 33 L 50 31 C 50 30.449219 49.554688 30 49 30 Z M 31 40 C 29.894531 40 29 40.894531 29 42 C 29 43.105469 29.894531 44 31 44 C 32.105469 44 33 43.105469 33 42 C 33 40.894531 32.105469 40 31 40 Z" fill="#440099"/></svg>
